<svg xmlns="http://www.w3.org/2000/svg" viewBox="0 0 800 500" role="img" aria-label="Demobillede af bil">
  <defs>
    <linearGradient id="bg" x1="0" y1="0" x2="0" y2="1">
      <stop offset="0" stop-color="#93A08F"/>
      <stop offset="1" stop-color="#67755F"/>
    </linearGradient>
  </defs>
  <rect width="800" height="500" fill="url(#bg)"/>
  <g fill="#ffffff" opacity="0.85">
    <path d="M190 320c0-14 8-36 24-44l36-58c8-13 22-21 37-21h180c17 0 33 8 43 22l40 55c22 6 60 14 60 46v30a12 12 0 0 1-12 12h-26a52 52 0 0 1-102 0H330a52 52 0 0 1-102 0h-26a12 12 0 0 1-12-12v-30z"/>
    <circle cx="279" cy="362" r="30" fill="#67755F"/>
    <circle cx="521" cy="362" r="30" fill="#67755F"/>
  </g>
  <text x="400" y="460" text-anchor="middle" font-family="sans-serif" font-size="24" fill="#ffffff" opacity="0.7">DEMOBILLEDE – erstattes med rigtige fotos</text>
</svg>
